PathFileType	4	(X/Y/Z)	pose_F01_0-96.trc
DataRate	CameraRate	NumFrames	NumMarkers	Units	OrigDataRate	OrigDataStartFrame	OrigNumFrames
30	30	7	21	m	30	36	96
Frame#	Time	CHip			RHip			RKnee			RAnkle			RBigToe			RSmallToe			RHeel			LHip			LKnee			LAnkle			LBigToe			LSmallToe			LHeel			Neck			Nose			RShoulder			RElbow			RWrist			LShoulder			LElbow			LWrist			
		X1	Y1	Z1	X2	Y2	Z2	X3	Y3	Z3	X4	Y4	Z4	X5	Y5	Z5	X6	Y6	Z6	X7	Y7	Z7	X8	Y8	Z8	X9	Y9	Z9	X10	Y10	Z10	X11	Y11	Z11	X12	Y12	Z12	X13	Y13	Z13	X14	Y14	Z14	X15	Y15	Z15	X16	Y16	Z16	X17	Y17	Z17	X18	Y18	Z18	X19	Y19	Z19	X20	Y20	Z20	X21	Y21	Z21	
36	1.2	-0.18704767654892565	1.8930950099307169	-0.5082945914204241	-0.1945571749187274	1.8886625267320705	-0.45085993341704855	-0.19447594853872308	1.7461903279495974	-0.45324075729104485	-0.18479733189314326	1.6074181781896524	-0.463927307831435	-0.21662477931302812	1.5666167556172195	-0.43424434617137386	-0.20881630223683673	1.575722945274801	-0.41194567012733196	-0.17631804142815216	1.6004457133585217	-0.47706255127101266	-0.1802832005102208	1.8986178705643706	-0.5719118020286652	-0.1834338431200167	1.750788446393528	-0.5849251092507914	-0.15828640945014177	1.6114611475861422	-0.63767068976584	-0.17927258427729714	1.556522766112888	-0.6391372118524069	-0.16869416161386633	1.5660277458509018	-0.6719438511849324	-0.15488900413025763	1.6037199903541597	-0.6315505612355565	-0.1827761389567163	2.0435106133163377	-0.5223248077220924	-0.2047853940903665	2.092076240858898	-0.4770924947615768	-0.1905680089561213	2.035909868406556	-0.4405222922249863	-2.0767975546217863	1.9101675270192993	1.7881311596920582	-0.20858117937446485	2.0534421908253835	-0.42683314994766886	-0.17120545960198402	2.052180645787962	-0.6054929224351245	-0.1928971284127941	1.9949934670160951	-0.6093229611105164	-1.5334932764025437	1.8707688322631282	0.8033251673460843
37	1.2333333333333334	-0.18713738858546816	1.8944876504684542	-0.5084815512595866	-0.1947992318773385	1.8890184664957848	-0.4509460143943266	-0.19392576965410396	1.7439466386493017	-0.44909478586525037	-0.18263328364092896	1.60595765592725	-0.4663685006677767	-0.21565305352782455	1.5669652428167693	-0.4308829974621067	-0.2086799240704844	1.575237110638592	-0.41179650619457253	-0.1750895103487915	1.598981439621813	-0.4828245668281897	-0.1796614049271613	1.898839749937485	-0.5689252455631354	-0.18660656037021117	1.74925895116872	-0.5772358663074438	-0.16022251788518596	1.6100940459100448	-0.6354952622277051	-0.17929603172467828	1.5563979335504097	-0.6390902830014392	-0.1687191643902358	1.5658963802792807	-0.6719153771864786	-0.15437575217141059	1.5996624902067629	-0.6319858007441228	-0.1819010203842327	2.04480119720997	-0.5198192148480643	-0.20392846804309792	2.0943842349073805	-0.4753426892206056	-0.18959654701575535	2.0359155469175367	-0.4374333854953034	-0.20965673733116136	1.9825927621145933	-0.37799830410456864	-0.20911110782869155	2.055780999583409	-0.4290743306795143	-0.17238860399566175	2.0533097105919866	-0.6007244639814704	-0.19189098605670385	1.9960757658004105	-0.6063616035394592	-1.5294591315035544	1.8684720845026903	0.7987039575716754
38	1.2666666666666666	-0.18427374921120004	1.8945121758273418	-0.5074856763545692	-0.19270333154571145	1.890263879433457	-0.45316402995938393	-0.19276305040663372	1.7449534855168405	-0.44604258619937853	-0.18281805415846117	1.6073115221540153	-0.46620039471893027	-0.21459303807781102	1.566492083651188	-0.4363790634922394	-0.20864311027735066	1.575251804847016	-0.4119906454627826	-0.17511739168302395	1.5992802463695879	-0.4828499772903719	-0.17959437100131903	1.8988534416993903	-0.5688909199653871	-0.18991621000677933	1.7492549689320265	-0.5692454796431082	-0.1605233083543513	1.609072616530617	-0.634821617416673	-0.17957984075197975	1.557975358810991	-0.6387925952132226	-0.17003824664786102	1.56600975981387	-0.6665315001737757	-0.15672374950460746	1.6012502720801094	-0.629531030403849	-0.18095368502858167	2.044584567958811	-0.5166024540733228	-0.20480399440002084	2.091400826029971	-0.4686201679630393	-0.1885755002428293	2.035733787721268	-0.43428382269293003	-0.2094605024533831	1.979676552656465	-0.37691993709558214	-0.20757331477292315	2.036094254027561	-0.4105906867613217	-0.17156625479675586	2.053200001103019	-0.5975715634734216	-0.19171953993374521	1.9971732369542545	-0.6061662574569489	-1.539340036002386	1.8705135604402277	0.8162425897467015
39	1.3	-0.18603545634830074	1.8941574885396506	-0.5049967140963889	-0.1917115178439471	1.8887502431646903	-0.44971021294287317	-0.19296285171479263	1.7438187057365546	-0.4455597388031221	-0.18483979584974022	1.60453701799029	-0.4636276957070111	-0.21452995088134197	1.5663307727427882	-0.43630738005258074	-0.20857149130163694	1.574736372241765	-0.4118639383544889	-0.17832748842335172	1.5976973018792298	-0.4833072425447868	-0.18066223272870527	1.8984254672432936	-0.5632269417010745	-0.19363923437363517	1.7488527345774536	-0.5608227907314564	-0.1682306446993767	1.6111444618270692	-0.6228520825314047	-0.18022475945320074	1.5577344832349729	-0.6344060388877515	-0.1685106556756186	1.5683984469820824	-0.6644366037600536	-0.1653555944861906	1.6002182022676747	-0.620156455408361	-0.18107403540783526	2.042138391333545	-0.5160200100586448	-0.20770568745475276	2.0891615657896887	-0.4605994638516504	-0.1885149017261689	2.0343788503347064	-0.4337591830294962	-0.21038768814051648	1.9770217944922954	-0.3710007263863299	-0.2052278010308106	2.032299393046422	-0.40180558269064076	-0.17374242213930838	2.051957027977848	-0.5953527875521721	-0.19331829066550707	1.9935493355278198	-0.6009531483106879	-0.23701691497833946	1.9490228638092733	-0.5691021280544257
40	1.3333333333333333	-0.1861003355562303	1.8956260517815455	-0.5052978465495238	-0.19161155970638177	1.8913737213302915	-0.4501818786372814	-0.19491049252640363	1.7408876433443317	-0.44299418827581677	-0.1838124129470173	1.6044589389103074	-0.46044248222621886	-0.21479963494470836	1.5678542427067013	-0.43620545839640623	-0.2067162246157947	1.5752282710157994	-0.4141563847314093	-0.17592272667137596	1.5976991317991431	-0.47744297600315827	-0.18089298992404973	1.8987215702070686	-0.5633443065420376	-0.1969902672063257	1.743252786708892	-0.5521615321086274	-0.16981864307288408	1.6095601997579079	-0.62132089972522	-0.18018314711178962	1.560519269385158	-0.634775995747331	-0.16951479824589588	1.5688016103199693	-0.6675280878539015	-0.16920293681988233	1.599811332121433	-0.6162933115834055	-0.18006874830039094	2.0431930791158117	-0.5128239629933594	-0.20584199447906792	2.088887800546634	-0.45435405432390197	-0.1856320366742597	2.034458865529652	-0.43268935416490384	-0.20856997089506416	1.9770696912660104	-0.37305701054251167	-0.2087649934106309	2.042040770589364	-0.4161609202383059	-0.17564769118102938	2.05302564829744	-0.5929955308353536	-0.18965204424469007	1.9960291304008269	-0.6079057060183455	-0.23556258390739454	1.94764598960104	-0.5738776737821301
41	1.3666666666666667	-0.18740258618868205	1.8930643191999506	-0.49938650079253466	-0.19073274838638246	1.890129956623217	-0.4466704613281195	-0.19496433242113678	1.7410148023261474	-0.44299417791352935	-0.1846411289137828	1.6058710272136552	-0.4641730827233917	-0.214461831259897	1.5684223034238554	-0.4369222155663253	-0.20678264617883463	1.5756355362466385	-0.4141315575669606	-0.1787287227078598	1.5989545327483976	-0.47913441287806907	-0.18336973602059398	1.8984630115040482	-0.5523128493239587	-0.20158017040829754	1.7482749608727495	-0.5392697228525104	-0.17131969648632442	1.6107259304544974	-0.6153367139773016	-0.18436764728854632	1.5589224702252866	-0.6302514753524541	-0.17648294142453783	1.5681839779385074	-0.6519495611610368	-0.1672019310156136	1.6011964817452324	-0.6100938293045218	-0.17999141871224236	2.045697342432527	-0.5132999456583294	-0.20677510623513304	2.0896598864875586	-0.44967803747253804	-0.18448353645502183	2.0397995430269518	-0.43903519894098464	-0.20848848962074257	1.9786083415012226	-0.3735518303297007	-0.2041663501672192	2.0316484378462296	-0.39788333475306076	-0.17582581677263748	2.0519844036611716	-0.5930636545158056	-0.1890276628999179	1.9922611007212618	-0.6051135595769804	-0.23175063291307468	1.946304966982877	-0.5695752552952787
42	1.4	-0.1863384778701272	1.8966788924153752	-0.4968064627866297	-0.1906989166907581	1.8926817143893109	-0.4470404085418336	-0.19692572262237643	1.7461961100303665	-0.44158207654363374	-0.18438608953521932	1.604431266919399	-0.46440834286352867	-0.2143711886761977	1.5682713405674114	-0.43693950485124194	-0.20673378741963747	1.575671433682052	-0.41414707783922905	-0.17886168026635618	1.5973374133002503	-0.4785769379310138	-0.1823634060912457	1.8996439162340322	-0.5492754808188635	-0.20327507857665994	1.7518828959798864	-0.5289870186885921	-0.1751168397385564	1.6117871742725636	-0.5984814382788086	-0.18595413571157424	1.5614718307675128	-0.6161103423167605	-0.17686466051137667	1.570697125264939	-0.6433137177227288	-0.17011427599347376	1.6023013569635047	-0.5898662235704518	-0.18084607749757364	2.046895105086685	-0.5162492738219066	-0.20581273423472513	2.088536001755704	-0.44583930682352785	-0.1873673046966048	2.039971454686678	-0.4401543971741946	-0.20754470694178254	1.978334283019137	-0.370288225224181	-0.20623112297087118	2.030726267841618	-0.39635172965698257	-0.17485477969399413	2.053025530829437	-0.5898836667933863	-0.18985614541977489	1.9923591279753414	-0.6081625807822408	-0.2350204616182845	1.9435760849694117	-0.5616510954445799
